<mxfile host="app.diagrams.net" modified="2024-06-10T14:04:13.251Z" agent="Mozilla/5.0 (X11; Linux x86_64; rv:126.0) Gecko/20100101 Firefox/126.0" version="24.0.7" etag="t-aGsbUJL8DP3s4R1-P2" type="github">
  <diagram name="Page-1" id="pcb0F8Uie9docCY4vdkL">
    <mxGraphModel>
      <root>
        <mxCell id="0" />
        <mxCell id="1" parent="0" />
      </root>
    </mxGraphModel>
  </diagram>
</mxfile>
